HIERARCHY
ROOT hip
{
  OFFSET 0 0 0
  CHANNELS 6 Xposition Yposition Zposition Zrotation Yrotation Xrotation
  JOINT abdomen
  {
    OFFSET 0 20.6881 -0.73152
    CHANNELS 3 Zrotation Xrotation Yrotation
    JOINT chest
    {
      OFFSET 0 11.7043 -0.48768
      CHANNELS 3 Zrotation Xrotation Yrotation
      JOINT neck
      {
        OFFSET 0 22.1894 -2.19456
        CHANNELS 3 Zrotation Xrotation Yrotation
        JOINT head
        {
          OFFSET -0.24384 7.07133 1.2192
          CHANNELS 3 Zrotation Xrotation Yrotation
          JOINT leftEye
          {
            OFFSET 4.14528 8.04674 8.04672
            CHANNELS 3 Zrotation Xrotation Yrotation
            End Site
            {
              OFFSET 1 0 0
            }
          }
          JOINT rightEye
          {
            OFFSET -3.6576 8.04674 8.04672
            CHANNELS 3 Zrotation Xrotation Yrotation
            End Site
            {
              OFFSET 1 0 0
            }
          }
        }
      }
      JOINT rCollar
      {
        OFFSET -2.68224 19.2634 -4.8768
        CHANNELS 3 Zrotation Xrotation Yrotation
        JOINT rShldr
        {
          OFFSET -8.77824 -1.95073 1.46304
          CHANNELS 3 Zrotation Xrotation Yrotation
          JOINT rForeArm
          {
            OFFSET -28.1742 -1.7115 0.48768
            CHANNELS 3 Zrotation Xrotation Yrotation
            JOINT rHand
            {
              OFFSET -22.5879 0.773209 7.07136
              CHANNELS 3 Zrotation Xrotation Yrotation
              JOINT rThumb1
              {
                OFFSET -1.2192 -0.487915 3.41376
                CHANNELS 3 Zrotation Xrotation Yrotation
                JOINT rThumb2
                {
                  OFFSET -3.37035 -0.52449 3.41376
                  CHANNELS 3 Zrotation Xrotation Yrotation
                  End Site
                  {
                    OFFSET -1.78271 -1.18214 1.43049
                  }
                }
              }
              JOINT rIndex1
              {
                OFFSET -7.75947 0.938293 5.60832
                CHANNELS 3 Zrotation Xrotation Yrotation
                JOINT rIndex2
                {
                  OFFSET -2.54057 -0.884171 1.56538
                  CHANNELS 3 Zrotation Xrotation Yrotation
                  End Site
                  {
                    OFFSET -1.62519 -0.234802 1.16502
                  }
                }
              }
              JOINT rMid1
              {
                OFFSET -8.24714 1.18213 3.41376
                CHANNELS 3 Zrotation Xrotation Yrotation
                JOINT rMid2
                {
                  OFFSET -3.10165 -0.590103 1.0647
                  CHANNELS 3 Zrotation Xrotation Yrotation
                  End Site
                  {
                    OFFSET -2.48547 -0.328903 0.83742
                  }
                }
              }
              JOINT rRing1
              {
                OFFSET -8.82822 0.546677 1.51678
                CHANNELS 3 Zrotation Xrotation Yrotation
                JOINT rRing2
                {
                  OFFSET -2.60934 -0.819778 -0.0198488
                  CHANNELS 3 Zrotation Xrotation Yrotation
                  End Site
                  {
                    OFFSET -2.33842 -0.294052 0.168128
                  }
                }
              }
              JOINT rPinky1
              {
                OFFSET -8.27202 -0.0477905 -0.4584
                CHANNELS 3 Zrotation Xrotation Yrotation
                JOINT rPinky2
                {
                  OFFSET -1.82734 -0.647385 -0.700984
                  CHANNELS 3 Zrotation Xrotation Yrotation
                  End Site
                  {
                    OFFSET -1.69225 -0.51767 -0.607171
                  }
                }
              }
            }
          }
        }
      }
      JOINT lCollar
      {
        OFFSET 2.68224 19.2634 -4.8768
        CHANNELS 3 Zrotation Xrotation Yrotation
        JOINT lShldr
        {
          OFFSET 8.77824 -1.95073 1.46304
          CHANNELS 3 Zrotation Xrotation Yrotation
          JOINT lForeArm
          {
            OFFSET 28.1742 -1.7115 0.48768
            CHANNELS 3 Zrotation Xrotation Yrotation
            JOINT lHand
            {
              OFFSET 22.5879 0.773209 7.07136
              CHANNELS 3 Zrotation Xrotation Yrotation
              JOINT lThumb1
              {
                OFFSET 1.2192 -0.487915 3.41376
                CHANNELS 3 Zrotation Xrotation Yrotation
                JOINT lThumb2
                {
                  OFFSET 3.37035 -0.52449 3.41376
                  CHANNELS 3 Zrotation Xrotation Yrotation
                  End Site
                  {
                    OFFSET 1.78271 -1.18214 1.43049
                  }
                }
              }
              JOINT lIndex1
              {
                OFFSET 7.75947 0.938293 5.60832
                CHANNELS 3 Zrotation Xrotation Yrotation
                JOINT lIndex2
                {
                  OFFSET 2.54057 -0.884171 1.56538
                  CHANNELS 3 Zrotation Xrotation Yrotation
                  End Site
                  {
                    OFFSET 1.62519 -0.234802 1.16502
                  }
                }
              }
              JOINT lMid1
              {
                OFFSET 8.24714 1.18213 3.41376
                CHANNELS 3 Zrotation Xrotation Yrotation
                JOINT lMid2
                {
                  OFFSET 3.10165 -0.590103 1.0647
                  CHANNELS 3 Zrotation Xrotation Yrotation
                  End Site
                  {
                    OFFSET 2.48547 -0.328903 0.83742
                  }
                }
              }
              JOINT lRing1
              {
                OFFSET 8.82822 0.546677 1.51678
                CHANNELS 3 Zrotation Xrotation Yrotation
                JOINT lRing2
                {
                  OFFSET 2.60934 -0.819778 -0.0198488
                  CHANNELS 3 Zrotation Xrotation Yrotation
                  End Site
                  {
                    OFFSET 2.33842 -0.294052 0.168128
                  }
                }
              }
              JOINT lPinky1
              {
                OFFSET 8.27202 -0.0477905 -0.4584
                CHANNELS 3 Zrotation Xrotation Yrotation
                JOINT lPinky2
                {
                  OFFSET 1.82734 -0.647385 -0.700984
                  CHANNELS 3 Zrotation Xrotation Yrotation
                  End Site
                  {
                    OFFSET 1.69225 -0.51767 -0.607171
                  }
                }
              }
            }
          }
        }
      }
    }
  }
  JOINT rButtock
  {
    OFFSET -8.77824 4.35084 1.2192
    CHANNELS 3 Zrotation Xrotation Yrotation
    JOINT rThigh
    {
      OFFSET 0 -1.70687 -2.19456
      CHANNELS 3 Zrotation Xrotation Yrotation
      JOINT rShin
      {
        OFFSET 0 -36.8199 0.73152
        CHANNELS 3 Zrotation Xrotation Yrotation
        JOINT rFoot
        {
          OFFSET 0.73152 -45.1104 -5.12064
          CHANNELS 3 Zrotation Xrotation Yrotation
          End Site
          {
            OFFSET -1.1221 -3.69964 12.103
          }
        }
      }
    }
  }
  JOINT lButtock
  {
    OFFSET 8.77824 4.35084 1.2192
    CHANNELS 3 Zrotation Xrotation Yrotation
    JOINT lThigh
    {
      OFFSET 0 -1.70687 -2.19456
      CHANNELS 3 Zrotation Xrotation Yrotation
      JOINT lShin
      {
        OFFSET 0 -36.8199 0.73152
        CHANNELS 3 Zrotation Xrotation Yrotation
        JOINT lFoot
        {
          OFFSET -0.73152 -45.1104 -5.12064
          CHANNELS 3 Zrotation Xrotation Yrotation
          End Site
          {
            OFFSET 1.1221 -3.69964 12.103
          }
        }
      }
    }
  }
}
MOTION
Frames:	4
Frame Time:	0.00833333
-60.2682 79.0341 -232.033 0.0 0.0 0.0 1.57508 -0.00270757 0.0428972 0.434176 0.00151703 0.0751891 -5.20942e-14 0.0 -3.97569e-16 -1.55875e-13 3.18055e-15 -1.14301e-15 -0.0 0.0 0.0 -0.0 0.0 0.0 -2.59434e-14 3.33896e-17 -4.96962e-17 -5.44082e-13 9.13167e-16 -5.76476e-15 -9.40684e-12 2.83765e-12 -3.18055e-15 -1.07553e-10 -2.67912e-12 -1.0464e-12 -2.5372e-10 3.39532e-13 -2.23911e-12 -4.38172e-10 5.82042e-13 -3.86437e-12 -2.53714e-10 3.42307e-13 -2.25183e-12 7.73091 5.47488 0.417314 -2.5372e-10 3.39922e-13 -2.24229e-12 2.90554 0.965183 0.102902 -2.53713e-10 3.39524e-13 -2.23832e-12 10.2786 0.731801 0.0259123 -2.53722e-10 3.41114e-13 -2.22639e-12 2.22167 -0.733487 -0.20892 -2.61399e-14 3.35837e-17 -4.47265e-16 -5.46782e-13 6.02566e-16 -7.35503e-15 -9.39019e-12 -2.79332e-12 -3.18055e-15 -1.07563e-10 2.94552e-12 -1.04322e-12 -2.53699e-10 3.29503e-13 -2.23911e-12 -4.38113e-10 5.69319e-13 -3.85801e-12 -2.53705e-10 3.29585e-13 -2.23275e-12 -7.73091 5.47488 -0.417314 -2.53699e-10 3.29088e-13 -2.24229e-12 -2.90554 0.965183 -0.102902 -2.53704e-10 3.29883e-13 -2.23832e-12 -10.2786 0.731801 -0.0259123 -2.53696e-10 3.29585e-13 -2.25183e-12 -2.22167 -0.733487 0.20892 -2.03217e-16 0.0 -3.88251e-19 1.70403 -6.6041 -0.159289 0.00259244 6.39982 0.0734132 -0.527163 0.199678 0.0639893 2.03217e-16 0.0 3.88251e-19 0.691434 -1.9236 0.00559147 0.00918178 -2.07857 0.0757836 0.503587 3.99746 -0.139048
-62.6414 75.7441 -238.733 -9.404 -4.9915 25.8139 0.444372 5.05894 0.775326 0.692698 -2.58898 0.2266 0.0767962 -0.653515 -0.143902 1.03614 -9.27641 -0.0158983 -0.0 0.0 0.0 -0.0 0.0 0.0 -6.02532e-14 -2.20981e-15 -3.01706e-14 22.9915 10.2096 -1.00989 -14.0695 -11.1943 14.3182 0.0220264 -3.32932 -0.465178 1.20198e-10 -1.44812e-10 -1.18909e-10 2.08646e-10 -2.52579e-10 -2.02598e-10 1.20204e-10 -1.44808e-10 -1.18924e-10 7.73091 5.47488 0.417314 1.20197e-10 -1.44811e-10 -1.18911e-10 2.90554 0.965183 0.102902 1.20203e-10 -1.44811e-10 -1.18907e-10 10.2786 0.731801 0.0259123 1.20195e-10 -1.44809e-10 -1.18896e-10 2.22167 -0.733487 -0.20892 -6.03913e-14 -2.21412e-15 -3.04707e-14 -22.0673 12.1632 2.82942 13.5767 -10.6538 -14.0919 -0.061636 -5.57186 0.770199 9.52505e-11 9.638e-11 -6.27394e-12 1.63574e-10 1.67106e-10 -5.87154e-12 9.52424e-11 9.63809e-11 -6.26264e-12 -7.73091 5.47488 -0.417314 9.52481e-11 9.63798e-11 -6.27633e-12 -2.90554 0.965183 -0.102902 9.52446e-11 9.63814e-11 -6.27366e-12 -10.2786 0.731801 -0.0259123 9.5253e-11 9.63816e-11 -6.285e-12 -2.22167 -0.733487 0.20892 -2.03217e-16 0.0 -3.88251e-19 0.301825 -10.8694 -2.51373 -0.0125273 23.1674 0.311392 -0.725673 5.16306 -2.24572 2.03217e-16 0.0 3.88251e-19 -1.01953 -19.5326 1.03751 0.0919189 17.556 -0.155129 0.195592 -1.671 -1.54295
-62.4527 75.5936 -236.243 -7.8896 -4.7965 25.529 -0.856955 10.4029 1.60307 0.965402 -5.31446 0.396675 0.169483 -1.33374 -0.29071 2.09424 -19.0938 -0.0369912 -0.0 0.0 0.0 -0.0 0.0 0.0 -9.85493e-14 -2.76357e-15 -6.25644e-14 47.68 21.1366 -2.08382 -22.8874 -20.812 31.2068 -0.0139726 -6.79128 -0.954288 5.32313e-10 -2.92202e-10 -2.29008e-10 9.21262e-10 -5.09746e-10 -3.89714e-10 5.3232e-10 -2.92195e-10 -2.29025e-10 7.73091 5.47488 0.417314 5.32312e-10 -2.922e-10 -2.2901e-10 2.90554 0.965183 0.102902 5.32317e-10 -2.92199e-10 -2.29004e-10 10.2786 0.731801 0.0259123 5.32311e-10 -2.92197e-10 -2.28996e-10 2.22167 -0.733487 -0.20892 -9.86267e-14 -2.77295e-15 -6.276e-14 -46.8344 24.9382 6.43619 22.172 -19.7144 -30.4292 0.0406363 -11.5535 1.62257 4.79319e-10 1.83816e-10 -5.19297e-11 8.26241e-10 3.19397e-10 -7.92066e-11 4.79309e-10 1.83818e-10 -5.19128e-11 -7.73091 5.47488 -0.417314 4.79314e-10 1.83816e-10 -5.19313e-11 -2.90554 0.965183 -0.102902 4.79312e-10 1.83818e-10 -5.193e-11 -10.2786 0.731801 -0.0259123 4.79321e-10 1.83819e-10 -5.19391e-11 -2.22167 -0.733487 0.20892 -2.03217e-16 0.0 -3.88251e-19 -1.50809 -15.101 -5.01184 -0.223507 40.6861 0.672531 -0.481897 10.5028 -4.72646 2.03217e-16 0.0 3.88251e-19 -1.91144 -38.2401 2.60161 0.390548 38.3166 -0.489648 -0.417566 -7.58994 -3.00246
-62.1518 75.4625 -233.799 -6.075 -4.2768 25.3327 -2.21724 15.1718 2.31174 1.25118 -7.76971 0.533627 0.220536 -1.9605 -0.431932 3.09126 -27.8292 -0.0532273 -0.0 0.0 0.0 -0.0 0.0 0.0 -1.28873e-13 -6.69619e-15 -9.04125e-14 70.2019 30.5875 -3.4642 -25.8645 -24.9307 47.698 -0.0982092 -9.98531 -1.41461 8.68033e-10 -4.35116e-10 -3.52249e-10 1.50228e-09 -7.58901e-10 -6.00066e-10 8.68039e-10 -4.35107e-10 -3.52268e-10 7.73091 5.47488 0.417314 8.68031e-10 -4.35113e-10 -3.52249e-10 2.90554 0.965183 0.102902 8.68034e-10 -4.35112e-10 -3.52243e-10 10.2786 0.731801 0.0259123 8.6803e-10 -4.35109e-10 -3.52236e-10 2.22167 -0.733487 -0.20892 -1.28894e-13 -6.70954e-15 -9.05177e-14 -70.5146 36.0898 10.2874 25.4616 -24.0124 -46.5403 0.281199 -16.7032 2.40104 7.9315e-10 2.88481e-10 -1.43436e-11 1.36695e-09 5.00179e-10 -9.89857e-12 7.93138e-10 2.88483e-10 -1.43224e-11 -7.73091 5.47488 -0.417314 7.93142e-10 2.88481e-10 -1.43444e-11 -2.90554 0.965183 -0.102902 7.93142e-10 2.88484e-10 -1.43444e-11 -10.2786 0.731801 -0.0259123 7.93151e-10 2.88486e-10 -1.43513e-11 -2.22167 -0.733487 0.20892 -2.03217e-16 0.0 -3.88251e-19 -3.60917 -19.2762 -7.51274 -0.776926 56.6967 1.29851 0.11045 14.9917 -7.07993 2.03217e-16 0.0 3.88251e-19 -1.3545 -54.6541 5.05564 1.03282 56.8205 -1.0876 -1.26987 -12.9716 -4.46359
